<mxfile host="drawio-plugin" modified="2022-12-15T02:15:44.585Z" agent="5.0 (Windows NT 6.2; Win64; x64) AppleWebKit/537.36 (KHTML, like Gecko) Chrome/104.0.5112.102 Safari/537.36" etag="gMDWUeRYGysvSusRS3sA" version="20.5.3" type="embed"><diagram name="Page-1" id="c7558073-3199-34d8-9f00-42111426c3f3"><mxGraphModel dx="1379" dy="742" grid="1" gridSize="10" guides="1" tooltips="1" connect="1" arrows="1" fold="1" page="1" pageScale="1" pageWidth="826" pageHeight="1169" background="none" math="0" shadow="0"><root><mxCell id="0"/><mxCell id="1" parent="0"/><UserObject label="PolicyBatch" id="98"><mxCell style="swimlane;horizontal=0;whiteSpace=wrap;html=1;fontFamily=Lucida Console;verticalAlign=middle;" parent="1" vertex="1"><mxGeometry x="10" y="761" width="4010" height="4099" as="geometry"/></mxCell></UserObject><mxCell id="107" style="edgeStyle=orthogonalEdgeStyle;rounded=0;orthogonalLoop=1;jettySize=auto;html=1;exitX=1;exitY=0.5;exitDx=0;exitDy=0;exitPerimeter=0;fontFamily=Lucida Console;" parent="98" source="103" target="104" edge="1"><mxGeometry relative="1" as="geometry"/></mxCell><mxCell id="103" value="&lt;span style=&quot;color: rgb(50, 50, 50); font-size: 18px; background-color: rgba(255, 255, 255, 0.01);&quot;&gt;renewPolicy&lt;br&gt;Schedule&lt;/span&gt;" style="strokeWidth=2;html=1;shape=mxgraph.flowchart.start_2;whiteSpace=wrap;fillColor=#f8cecc;strokeColor=#b85450;fontFamily=Lucida Console;" parent="98" vertex="1"><mxGeometry x="60" y="47.01" width="110" height="110" as="geometry"/></mxCell><mxCell id="109" style="edgeStyle=orthogonalEdgeStyle;rounded=0;orthogonalLoop=1;jettySize=auto;html=1;exitX=1;exitY=0.5;exitDx=0;exitDy=0;entryX=0;entryY=0.5;entryDx=0;entryDy=0;fontFamily=Lucida Console;" parent="98" source="104" target="108" edge="1"><mxGeometry relative="1" as="geometry"/></mxCell><mxCell id="133" style="edgeStyle=orthogonalEdgeStyle;rounded=0;orthogonalLoop=1;jettySize=auto;html=1;exitX=0.5;exitY=1;exitDx=0;exitDy=0;entryX=0.5;entryY=0;entryDx=0;entryDy=0;entryPerimeter=0;dashed=1;" parent="98" source="104" target="131" edge="1"><mxGeometry relative="1" as="geometry"/></mxCell><mxCell id="104" value="&lt;div class=&quot;mind-clipboard&quot; style=&quot;font-size: 16px;&quot;&gt;setRenewDueDate(bizTime)&lt;div style=&quot;font-size: 16px;&quot;&gt;setPremStatus(NORMAL_PAYMENT(1, &quot;正常缴费&quot;))&lt;br style=&quot;font-size: 16px;&quot;&gt;&lt;/div&gt;&lt;div style=&quot;font-size: 16px;&quot;&gt;setRenewStatus(EFFECTIVE(1, &quot;生效中&quot;))&lt;br style=&quot;font-size: 16px;&quot;&gt;&lt;/div&gt;&lt;div style=&quot;font-size: 16px;&quot;&gt;以上作为条件查询&lt;/div&gt;&lt;div style=&quot;font-size: 16px;&quot;&gt;renew_policy_premium_schedule&lt;/div&gt;&lt;/div&gt;" style="rounded=1;whiteSpace=wrap;html=1;absoluteArcSize=1;arcSize=14;strokeWidth=2;fontFamily=Lucida Console;fontSize=16;align=left;" parent="98" vertex="1"><mxGeometry x="255" y="24" width="325" height="156" as="geometry"/></mxCell><mxCell id="111" style="edgeStyle=orthogonalEdgeStyle;rounded=0;orthogonalLoop=1;jettySize=auto;html=1;exitX=1;exitY=0.5;exitDx=0;exitDy=0;entryX=0;entryY=0.5;entryDx=0;entryDy=0;fontFamily=Lucida Console;" parent="98" source="108" target="110" edge="1"><mxGeometry relative="1" as="geometry"/></mxCell><mxCell id="108" value="&lt;div class=&quot;mind-clipboard&quot; style=&quot;font-size: 16px;&quot;&gt;&lt;div class=&quot;mind-clipboard&quot; style=&quot;font-size: 16px;&quot;&gt;每页最大的ID，以每页limit1000为基准，分页查询，按id正序排序，取每页最后一条记录更新maxIdValue，作为下一个分页查询的条件&lt;br style=&quot;font-size: 16px;&quot;&gt;&lt;/div&gt;&lt;/div&gt;" style="rounded=1;whiteSpace=wrap;html=1;absoluteArcSize=1;arcSize=14;strokeWidth=2;fontFamily=Lucida Console;fontSize=16;" parent="98" vertex="1"><mxGeometry x="660" y="52.629999999999995" width="280" height="98.75" as="geometry"/></mxCell><mxCell id="110" value="&lt;div class=&quot;mind-clipboard&quot; style=&quot;font-size: 16px;&quot;&gt;查询获取到list&lt;div style=&quot;font-size: 16px;&quot;&gt;遍历，异步处理每个object&lt;br&gt;发送kafka消息，tag:batch-renew-message，policyBatch自产自销&lt;/div&gt;&lt;/div&gt;" style="rounded=1;whiteSpace=wrap;html=1;absoluteArcSize=1;arcSize=14;strokeWidth=2;fontFamily=Lucida Console;fontSize=16;" parent="98" vertex="1"><mxGeometry x="1000" y="50.25" width="276.12" height="103.5" as="geometry"/></mxCell><mxCell id="233" style="edgeStyle=orthogonalEdgeStyle;rounded=0;orthogonalLoop=1;jettySize=auto;html=1;" parent="98" source="114" target="115" edge="1"><mxGeometry relative="1" as="geometry"/></mxCell><mxCell id="114" value="&lt;font color=&quot;#323232&quot;&gt;&lt;span style=&quot;font-size: 16px; background-color: rgba(255, 255, 255, 0.01);&quot;&gt;校验&lt;/span&gt;&lt;/font&gt;" style="rounded=1;whiteSpace=wrap;html=1;absoluteArcSize=1;arcSize=14;strokeWidth=2;fontFamily=Lucida Console;" parent="98" vertex="1"><mxGeometry x="2272" y="882" width="107.5" height="50" as="geometry"/></mxCell><mxCell id="122" style="edgeStyle=orthogonalEdgeStyle;rounded=0;orthogonalLoop=1;jettySize=auto;html=1;exitX=0.5;exitY=1;exitDx=0;exitDy=0;entryX=0.5;entryY=0;entryDx=0;entryDy=0;entryPerimeter=0;fontFamily=Lucida Console;" parent="98" source="115" target="117" edge="1"><mxGeometry relative="1" as="geometry"/></mxCell><mxCell id="136" style="edgeStyle=orthogonalEdgeStyle;rounded=0;orthogonalLoop=1;jettySize=auto;html=1;dashed=1;entryX=1.007;entryY=0.497;entryDx=0;entryDy=0;entryPerimeter=0;" parent="98" source="115" target="134" edge="1"><mxGeometry relative="1" as="geometry"><mxPoint x="2063" y="1062" as="targetPoint"/></mxGeometry></mxCell><mxCell id="115" value="&lt;span style=&quot;color: rgb(50, 50, 50); font-size: 16px; background-color: rgba(255, 255, 255, 0.01);&quot;&gt;根据保单号、交易状态为[1 初始化 INIT]为&lt;/span&gt;&lt;span style=&quot;color: rgb(50, 50, 50); font-size: 16px; background-color: rgba(255, 255, 255, 0.01);&quot;&gt;条件&lt;/span&gt;&lt;span style=&quot;color: rgb(50, 50, 50); font-size: 16px; background-color: rgba(255, 255, 255, 0.01);&quot;&gt;，查询此保单是否存在还未缴费的账单（查询续期交易记录），对应表是renew_policy_transaction、renew_policy_transaction_detail&lt;/span&gt;" style="rounded=1;whiteSpace=wrap;html=1;absoluteArcSize=1;arcSize=14;strokeWidth=2;fontFamily=Lucida Console;" parent="98" vertex="1"><mxGeometry x="2168" y="1002" width="315" height="120" as="geometry"/></mxCell><object label="" placeholders="1" id="125"><mxCell style="edgeStyle=orthogonalEdgeStyle;rounded=0;orthogonalLoop=1;jettySize=auto;html=1;entryX=1;entryY=0.5;entryDx=0;entryDy=0;entryPerimeter=0;fontFamily=Lucida Console;" parent="98" source="117" target="124" edge="1"><mxGeometry relative="1" as="geometry"/></mxCell></object><mxCell id="129" style="edgeStyle=orthogonalEdgeStyle;rounded=0;orthogonalLoop=1;jettySize=auto;html=1;exitX=0.5;exitY=1;exitDx=0;exitDy=0;exitPerimeter=0;entryX=0.5;entryY=0;entryDx=0;entryDy=0;" parent="98" source="117" target="127" edge="1"><mxGeometry relative="1" as="geometry"/></mxCell><mxCell id="117" value="&lt;span style=&quot;color: rgb(50, 50, 50); font-size: 16px; background-color: rgba(255, 255, 255, 0.01);&quot;&gt;未缴费的账单&lt;/span&gt;" style="strokeWidth=2;html=1;shape=mxgraph.flowchart.decision;whiteSpace=wrap;fontFamily=Lucida Console;" parent="98" vertex="1"><mxGeometry x="2288.63" y="1207" width="73.75" height="60" as="geometry"/></mxCell><mxCell id="124" value="&lt;font style=&quot;font-size: 16px;&quot;&gt;结束&lt;/font&gt;" style="strokeWidth=2;html=1;shape=mxgraph.flowchart.terminator;whiteSpace=wrap;fontFamily=Lucida Console;" parent="98" vertex="1"><mxGeometry x="2083" y="1207" width="100" height="60" as="geometry"/></mxCell><mxCell id="126" value="存在" style="text;html=1;strokeColor=none;fillColor=none;align=center;verticalAlign=middle;whiteSpace=wrap;rounded=0;fontFamily=Lucida Console;fontStyle=1" parent="98" vertex="1"><mxGeometry x="2210" y="1207" width="60" height="30" as="geometry"/></mxCell><mxCell id="138" style="edgeStyle=orthogonalEdgeStyle;rounded=0;orthogonalLoop=1;jettySize=auto;html=1;entryX=1.007;entryY=0.507;entryDx=0;entryDy=0;entryPerimeter=0;dashed=1;" parent="98" source="127" target="137" edge="1"><mxGeometry relative="1" as="geometry"/></mxCell><mxCell id="140" style="edgeStyle=orthogonalEdgeStyle;rounded=0;orthogonalLoop=1;jettySize=auto;html=1;exitX=0.5;exitY=1;exitDx=0;exitDy=0;entryX=0.5;entryY=0;entryDx=0;entryDy=0;entryPerimeter=0;" parent="98" source="127" target="139" edge="1"><mxGeometry relative="1" as="geometry"/></mxCell><mxCell id="127" value="&lt;div style=&quot;font-size: 16px;&quot; class=&quot;mind-clipboard&quot;&gt;&lt;strike&gt;判断续保新单首期是否缴费，入参条件为保单号、续保状态为[8 续保生效&lt;span style=&quot;font-size: inherit;&quot;&gt;&amp;nbsp;EFFECTIVE_RENEWAL]，对应表是&lt;/span&gt;renewal_policy，如果查询到数据，取字段[premStatus 支付状态]&lt;/strike&gt;&lt;/div&gt;" style="rounded=1;whiteSpace=wrap;html=1;absoluteArcSize=1;arcSize=14;strokeWidth=2;fontFamily=Lucida Console;" parent="98" vertex="1"><mxGeometry x="2181.75" y="1371" width="287.5" height="130" as="geometry"/></mxCell><mxCell id="130" value="不存在" style="text;html=1;strokeColor=none;fillColor=none;align=center;verticalAlign=middle;whiteSpace=wrap;rounded=0;fontFamily=Lucida Console;rotation=90;fontStyle=1" parent="98" vertex="1"><mxGeometry x="2312" y="1292" width="60" height="30" as="geometry"/></mxCell><mxCell id="131" value="&lt;div&gt;SELECT&lt;/div&gt;&lt;div&gt;&lt;span style=&quot;&quot;&gt;&#9;&lt;/span&gt;*&amp;nbsp;&lt;/div&gt;&lt;div&gt;FROM&lt;/div&gt;&lt;div&gt;&lt;span style=&quot;&quot;&gt;&#9;&lt;/span&gt;sj_gr_policy_batch.renew_policy_premium_schedule&amp;nbsp;&lt;/div&gt;&lt;div&gt;WHERE&lt;/div&gt;&lt;div&gt;&lt;span style=&quot;&quot;&gt;&#9;&lt;/span&gt;is_deleted = 'N'&amp;nbsp;&lt;/div&gt;&lt;div&gt;&lt;span style=&quot;&quot;&gt;&#9;&lt;/span&gt;AND prem_status = 1&amp;nbsp;&lt;/div&gt;&lt;div&gt;&lt;span style=&quot;&quot;&gt;&#9;&lt;/span&gt;AND renew_status = 1&amp;nbsp;&lt;/div&gt;&lt;div&gt;&lt;span style=&quot;&quot;&gt;&#9;&lt;/span&gt;AND renew_due_date &amp;lt;= '2022-11-28 09:00:00'&amp;nbsp;&lt;/div&gt;&lt;div&gt;&lt;span style=&quot;&quot;&gt;&#9;&lt;/span&gt;LIMIT 1000&lt;/div&gt;" style="shape=note;size=20;whiteSpace=wrap;html=1;align=left;verticalAlign=middle;" parent="98" vertex="1"><mxGeometry x="272.5" y="340" width="290" height="160" as="geometry"/></mxCell><mxCell id="134" value="&lt;div style=&quot;font-size: 14px;&quot;&gt;SELECT&lt;/div&gt;&lt;div style=&quot;font-size: 14px;&quot;&gt;&lt;span style=&quot;font-size: 14px;&quot;&gt;&#9;&lt;/span&gt;*&amp;nbsp;&lt;/div&gt;&lt;div style=&quot;font-size: 14px;&quot;&gt;FROM&lt;/div&gt;&lt;div style=&quot;font-size: 14px;&quot;&gt;&lt;span style=&quot;font-size: 14px;&quot;&gt;&#9;&lt;/span&gt;sj_gr_policy_batch.&lt;br&gt;renew_policy_transaction&amp;nbsp;&lt;/div&gt;&lt;div style=&quot;font-size: 14px;&quot;&gt;WHERE&lt;/div&gt;&lt;div style=&quot;font-size: 14px;&quot;&gt;&lt;span style=&quot;font-size: 14px;&quot;&gt;&#9;&lt;/span&gt;1 = 1&amp;nbsp;&lt;/div&gt;&lt;div style=&quot;font-size: 14px;&quot;&gt;&lt;span style=&quot;font-size: 14px;&quot;&gt;&#9;&lt;/span&gt;AND policy_holder_customer_id = 9560591&amp;nbsp;&lt;/div&gt;&lt;div style=&quot;font-size: 14px;&quot;&gt;&lt;span style=&quot;font-size: 14px;&quot;&gt;&#9;&lt;/span&gt;AND policy_no = 'SAG300247020'&amp;nbsp;&lt;/div&gt;&lt;div style=&quot;font-size: 14px;&quot;&gt;&lt;span style=&quot;font-size: 14px;&quot;&gt;&#9;&lt;/span&gt;AND STATUS = 1&amp;nbsp;&lt;/div&gt;&lt;div style=&quot;font-size: 14px;&quot;&gt;&lt;span style=&quot;font-size: 14px;&quot;&gt;&#9;&lt;/span&gt;AND is_deleted = 'N'&lt;/div&gt;" style="shape=note;size=20;whiteSpace=wrap;html=1;align=left;verticalAlign=middle;fontFamily=Lucida Console;fontSize=14;" parent="98" vertex="1"><mxGeometry x="1753" y="951" width="280" height="221" as="geometry"/></mxCell><mxCell id="137" value="&lt;div&gt;SELECT&lt;/div&gt;&lt;div&gt;&lt;span style=&quot;&quot;&gt;&#9;&lt;/span&gt;*&amp;nbsp;&lt;/div&gt;&lt;div&gt;FROM&lt;/div&gt;&lt;div&gt;&lt;span style=&quot;&quot;&gt;&#9;&lt;/span&gt;sj_gr_policy_batch.renewal_policy&amp;nbsp;&lt;/div&gt;&lt;div&gt;WHERE&lt;/div&gt;&lt;div&gt;&lt;span style=&quot;&quot;&gt;&#9;&lt;/span&gt;1 = 1&amp;nbsp;&lt;/div&gt;&lt;div&gt;&lt;span style=&quot;&quot;&gt;&#9;&lt;/span&gt;AND renewal_status = 8&amp;nbsp;&lt;/div&gt;&lt;div&gt;&lt;span style=&quot;&quot;&gt;&#9;&lt;/span&gt;AND next_policy_no = 'SAG300247020'&amp;nbsp;&lt;/div&gt;&lt;div&gt;&lt;span style=&quot;&quot;&gt;&#9;&lt;/span&gt;AND is_deleted = 'N'&lt;/div&gt;" style="shape=note;size=20;whiteSpace=wrap;html=1;align=left;verticalAlign=middle;" parent="98" vertex="1"><mxGeometry x="1823" y="1365" width="220" height="140" as="geometry"/></mxCell><mxCell id="142" style="edgeStyle=orthogonalEdgeStyle;rounded=0;orthogonalLoop=1;jettySize=auto;html=1;exitX=0;exitY=0.5;exitDx=0;exitDy=0;exitPerimeter=0;entryX=1;entryY=0.5;entryDx=0;entryDy=0;entryPerimeter=0;" parent="98" source="139" target="141" edge="1"><mxGeometry relative="1" as="geometry"/></mxCell><mxCell id="147" style="edgeStyle=orthogonalEdgeStyle;rounded=0;orthogonalLoop=1;jettySize=auto;html=1;fontSize=16;" parent="98" source="139" target="146" edge="1"><mxGeometry relative="1" as="geometry"/></mxCell><mxCell id="139" value="&lt;span style=&quot;color: rgb(50, 50, 50); font-size: 16px; background-color: rgba(255, 255, 255, 0.01);&quot;&gt;&lt;strike&gt;续保首期缴费状态&lt;/strike&gt;&lt;/span&gt;" style="strokeWidth=2;html=1;shape=mxgraph.flowchart.decision;whiteSpace=wrap;fontFamily=Lucida Console;" parent="98" vertex="1"><mxGeometry x="2288.62" y="1592" width="73.75" height="60" as="geometry"/></mxCell><mxCell id="141" value="结束" style="strokeWidth=2;html=1;shape=mxgraph.flowchart.terminator;whiteSpace=wrap;fontFamily=Lucida Console;fontSize=16;" parent="98" vertex="1"><mxGeometry x="2102" y="1592" width="100" height="60" as="geometry"/></mxCell><mxCell id="143" value="NO" style="text;html=1;strokeColor=none;fillColor=none;align=center;verticalAlign=middle;whiteSpace=wrap;rounded=0;fontFamily=Lucida Console;fontStyle=1" parent="98" vertex="1"><mxGeometry x="2220" y="1591" width="60" height="30" as="geometry"/></mxCell><mxCell id="145" value="&lt;span style=&quot;font-family: &amp;quot;Lucida Console&amp;quot;;&quot;&gt;是NO，代表续保首期保费未支付&lt;/span&gt;" style="shape=note;size=20;whiteSpace=wrap;html=1;fontSize=16;" parent="98" vertex="1"><mxGeometry x="2055.5" y="1472" width="100" height="100" as="geometry"/></mxCell><mxCell id="150" style="edgeStyle=orthogonalEdgeStyle;rounded=0;orthogonalLoop=1;jettySize=auto;html=1;entryX=0.5;entryY=0;entryDx=0;entryDy=0;fontSize=16;" parent="98" source="146" target="149" edge="1"><mxGeometry relative="1" as="geometry"/></mxCell><mxCell id="203" style="edgeStyle=none;rounded=0;orthogonalLoop=1;jettySize=auto;html=1;entryX=1;entryY=0.5;entryDx=0;entryDy=0;dashed=1;exitX=0;exitY=0.5;exitDx=0;exitDy=0;" parent="98" source="146" target="201" edge="1"><mxGeometry relative="1" as="geometry"/></mxCell><mxCell id="146" value="&lt;div style=&quot;font-size: 16px;&quot; class=&quot;mind-clipboard&quot;&gt;&lt;div class=&quot;mind-clipboard&quot;&gt;根据保单号，未抽档flag等条件，查询续期相关信息(包括续期计划，缴费人信息，缴费频率，险种保费信息，险种计划,交易信息)[renew_policy_premium_schedule]表记录&lt;/div&gt;&lt;/div&gt;" style="rounded=1;whiteSpace=wrap;html=1;absoluteArcSize=1;arcSize=14;strokeWidth=2;fontFamily=Lucida Console;" parent="98" vertex="1"><mxGeometry x="2161.01" y="1712" width="328.99" height="130" as="geometry"/></mxCell><mxCell id="148" value="YES" style="text;html=1;strokeColor=none;fillColor=none;align=center;verticalAlign=middle;whiteSpace=wrap;rounded=0;fontFamily=Lucida Console;rotation=90;fontStyle=1" parent="98" vertex="1"><mxGeometry x="2311" y="1662" width="60" height="30" as="geometry"/></mxCell><mxCell id="205" style="edgeStyle=none;rounded=0;orthogonalLoop=1;jettySize=auto;html=1;entryX=0;entryY=0.5;entryDx=0;entryDy=0;entryPerimeter=0;dashed=1;" parent="98" source="149" target="204" edge="1"><mxGeometry relative="1" as="geometry"/></mxCell><mxCell id="207" style="edgeStyle=none;rounded=0;orthogonalLoop=1;jettySize=auto;html=1;entryX=0.5;entryY=0;entryDx=0;entryDy=0;" parent="98" source="149" target="206" edge="1"><mxGeometry relative="1" as="geometry"/></mxCell><mxCell id="149" value="&lt;div style=&quot;&quot; class=&quot;mind-clipboard&quot;&gt;&lt;div style=&quot;&quot; class=&quot;mind-clipboard&quot;&gt;&lt;div style=&quot;&quot;&gt;&lt;span style=&quot;background-color: rgba(255, 255, 255, 0.01);&quot;&gt;&lt;font face=&quot;Arial&quot; color=&quot;#323232&quot;&gt;&lt;span style=&quot;font-size: 17px;&quot;&gt;更新保单续期计划字段[&lt;/span&gt;&lt;/font&gt;&lt;/span&gt;&lt;span style=&quot;font-size: 16px; color: rgb(50, 50, 50); font-family: Arial; background-color: rgba(255, 255, 255, 0.01);&quot;&gt;flag]改为&lt;/span&gt;&lt;span style=&quot;background-color: initial; font-size: 18px;&quot;&gt;&lt;font face=&quot;Arial&quot; color=&quot;#323232&quot;&gt;[&lt;/font&gt;&lt;/span&gt;&lt;span style=&quot;background-color: initial; font-size: 18px;&quot;&gt;&lt;font face=&quot;Arial&quot; color=&quot;#323232&quot;&gt;RUNNING(2, &quot;抽档中&quot;)&lt;/font&gt;&lt;/span&gt;&lt;span style=&quot;color: rgb(50, 50, 50); font-family: Arial; background-color: initial; font-size: 18px;&quot;&gt;]&lt;/span&gt;&lt;/div&gt;&lt;/div&gt;&lt;/div&gt;" style="rounded=1;whiteSpace=wrap;html=1;absoluteArcSize=1;arcSize=14;strokeWidth=2;fontFamily=Lucida Console;" parent="98" vertex="1"><mxGeometry x="2198.75" y="1945.5" width="253.25" height="61.5" as="geometry"/></mxCell><mxCell id="151" value="&lt;div style=&quot;font-size: 12px;&quot;&gt;&lt;font style=&quot;font-size: 12px;&quot;&gt;SELECT&lt;/font&gt;&lt;/div&gt;&lt;div style=&quot;font-size: 12px;&quot;&gt;&lt;font style=&quot;font-size: 12px;&quot;&gt;&lt;span style=&quot;font-size: 12px;&quot;&gt;&#9;&lt;/span&gt;*&amp;nbsp;&lt;/font&gt;&lt;/div&gt;&lt;div style=&quot;font-size: 12px;&quot;&gt;&lt;font style=&quot;font-size: 12px;&quot;&gt;FROM&lt;/font&gt;&lt;/div&gt;&lt;div style=&quot;font-size: 12px;&quot;&gt;&lt;font style=&quot;font-size: 12px;&quot;&gt;&lt;span style=&quot;font-size: 12px;&quot;&gt;&#9;&lt;/span&gt;renew_policy_premium_schedule&amp;nbsp;&lt;/font&gt;&lt;/div&gt;&lt;div style=&quot;font-size: 12px;&quot;&gt;&lt;font style=&quot;font-size: 12px;&quot;&gt;WHERE&lt;/font&gt;&lt;/div&gt;&lt;div style=&quot;font-size: 12px;&quot;&gt;&lt;font style=&quot;font-size: 12px;&quot;&gt;&lt;span style=&quot;font-size: 12px;&quot;&gt;&#9;&lt;/span&gt;1 = 1&amp;nbsp;&lt;/font&gt;&lt;/div&gt;&lt;div style=&quot;font-size: 12px;&quot;&gt;&lt;font style=&quot;font-size: 12px;&quot;&gt;&lt;span style=&quot;font-size: 12px;&quot;&gt;&#9;&lt;/span&gt;AND id = 9716297&amp;nbsp;&lt;/font&gt;&lt;/div&gt;&lt;div style=&quot;font-size: 12px;&quot;&gt;&lt;font style=&quot;font-size: 12px;&quot;&gt;&lt;span style=&quot;font-size: 12px;&quot;&gt;&#9;&lt;/span&gt;AND policy_no = 'SAG300247020'&amp;nbsp;&lt;/font&gt;&lt;/div&gt;&lt;div style=&quot;font-size: 12px;&quot;&gt;&lt;font style=&quot;font-size: 12px;&quot;&gt;&lt;span style=&quot;font-size: 12px;&quot;&gt;&#9;&lt;/span&gt;AND policy_holder_customer_id = 9560591&amp;nbsp;&lt;/font&gt;&lt;/div&gt;&lt;div style=&quot;font-size: 12px;&quot;&gt;&lt;font style=&quot;font-size: 12px;&quot;&gt;&lt;span style=&quot;font-size: 12px;&quot;&gt;&#9;&lt;/span&gt;AND prem_status = 1&amp;nbsp;&lt;/font&gt;&lt;/div&gt;&lt;div style=&quot;font-size: 12px;&quot;&gt;&lt;font style=&quot;font-size: 12px;&quot;&gt;&lt;span style=&quot;font-size: 12px;&quot;&gt;&#9;&lt;/span&gt;AND flag = 1&amp;nbsp;&lt;/font&gt;&lt;/div&gt;&lt;div style=&quot;font-size: 12px;&quot;&gt;&lt;font style=&quot;font-size: 12px;&quot;&gt;&#9;AND is_deleted = 'N';&lt;/font&gt;&lt;/div&gt;" style="shape=note;size=20;whiteSpace=wrap;html=1;fontSize=12;align=left;" parent="98" vertex="1"><mxGeometry x="1197" y="1589" width="200" height="200" as="geometry"/></mxCell><mxCell id="190" value="&lt;div style=&quot;font-size: 12px;&quot;&gt;&lt;div&gt;SELECT&lt;/div&gt;&lt;div&gt;&lt;span style=&quot;&quot;&gt;&#9;&lt;/span&gt;*&amp;nbsp;&lt;/div&gt;&lt;div&gt;FROM&lt;/div&gt;&lt;div&gt;&lt;span style=&quot;&quot;&gt;&#9;&lt;/span&gt;renew_premium_payer&amp;nbsp;&lt;/div&gt;&lt;div&gt;WHERE&lt;/div&gt;&lt;div&gt;&lt;span style=&quot;&quot;&gt;&#9;&lt;/span&gt;1 = 1&amp;nbsp;&lt;/div&gt;&lt;div&gt;&lt;span style=&quot;&quot;&gt;&#9;&lt;/span&gt;AND policy_holder_customer_id = 9560591&amp;nbsp;&lt;/div&gt;&lt;div&gt;&lt;span style=&quot;&quot;&gt;&#9;&lt;/span&gt;AND renew_policy_premium_schedule_id = 9716297&amp;nbsp;&lt;/div&gt;&lt;div&gt;&lt;span style=&quot;&quot;&gt;&#9;&lt;/span&gt;AND is_deleted = 'N'&lt;/div&gt;&lt;/div&gt;" style="shape=note;size=20;whiteSpace=wrap;html=1;fontSize=12;align=left;" parent="98" vertex="1"><mxGeometry x="1437" y="1594" width="200" height="190" as="geometry"/></mxCell><mxCell id="191" value="&lt;div style=&quot;font-size: 12px;&quot;&gt;&lt;div&gt;SELECT&lt;/div&gt;&lt;div&gt;&lt;span style=&quot;&quot;&gt;&#9;&lt;/span&gt;*&amp;nbsp;&lt;/div&gt;&lt;div&gt;FROM&lt;/div&gt;&lt;div&gt;&lt;span style=&quot;&quot;&gt;&#9;&lt;/span&gt;renew_product_premium_schedule&amp;nbsp;&lt;/div&gt;&lt;div&gt;WHERE&lt;/div&gt;&lt;div&gt;&lt;span style=&quot;&quot;&gt;&#9;&lt;/span&gt;1 = 1&amp;nbsp;&lt;/div&gt;&lt;div&gt;&lt;span style=&quot;&quot;&gt;&#9;&lt;/span&gt;AND renew_policy_premium_schedule_id = 9716297&amp;nbsp;&lt;/div&gt;&lt;div&gt;&lt;span style=&quot;&quot;&gt;&#9;&lt;/span&gt;AND policy_holder_customer_id = 9560591&amp;nbsp;&lt;/div&gt;&lt;div&gt;&lt;span style=&quot;&quot;&gt;&#9;&lt;/span&gt;AND is_deleted = 'N'&lt;/div&gt;&lt;/div&gt;" style="shape=note;size=20;whiteSpace=wrap;html=1;fontSize=12;align=left;" parent="98" vertex="1"><mxGeometry x="1667" y="1594" width="205" height="190" as="geometry"/></mxCell><mxCell id="192" value="&lt;div style=&quot;font-size: 12px;&quot;&gt;&lt;div&gt;SELECT&lt;/div&gt;&lt;div&gt;&lt;span style=&quot;&quot;&gt;&#9;&lt;/span&gt;*&amp;nbsp;&lt;/div&gt;&lt;div&gt;FROM&lt;/div&gt;&lt;div&gt;&lt;span style=&quot;&quot;&gt;&#9;&lt;/span&gt;renew_product_premium&amp;nbsp;&lt;/div&gt;&lt;div&gt;WHERE&lt;/div&gt;&lt;div&gt;&lt;span style=&quot;&quot;&gt;&#9;&lt;/span&gt;1 = 1&amp;nbsp;&lt;/div&gt;&lt;div&gt;&lt;span style=&quot;&quot;&gt;&#9;&lt;/span&gt;AND policy_holder_customer_id = 9560591&amp;nbsp;&lt;/div&gt;&lt;div&gt;&lt;span style=&quot;&quot;&gt;&#9;&lt;/span&gt;AND renew_policy_premium_schedule_id = 9716297&amp;nbsp;&lt;/div&gt;&lt;div&gt;&lt;span style=&quot;&quot;&gt;&#9;&lt;/span&gt;AND renew_product_premium_schedule_id = 9743789&amp;nbsp;&lt;/div&gt;&lt;div&gt;&lt;span style=&quot;&quot;&gt;&#9;&lt;/span&gt;AND is_deleted = 'N'&lt;/div&gt;&lt;/div&gt;" style="shape=note;size=20;whiteSpace=wrap;html=1;fontSize=12;align=left;" parent="98" vertex="1"><mxGeometry x="1197" y="1819" width="220" height="240" as="geometry"/></mxCell><mxCell id="193" value="&lt;div style=&quot;font-size: 12px;&quot;&gt;&lt;div&gt;SELECT&lt;/div&gt;&lt;div&gt;&lt;span style=&quot;&quot;&gt;&#9;&lt;/span&gt;*&amp;nbsp;&lt;/div&gt;&lt;div&gt;FROM&lt;/div&gt;&lt;div&gt;&lt;span style=&quot;&quot;&gt;&#9;&lt;/span&gt;renew_premium_frequency&amp;nbsp;&lt;/div&gt;&lt;div&gt;WHERE&lt;/div&gt;&lt;div&gt;&lt;span style=&quot;&quot;&gt;&#9;&lt;/span&gt;1 = 1&amp;nbsp;&lt;/div&gt;&lt;div&gt;&lt;span style=&quot;&quot;&gt;&#9;&lt;/span&gt;AND policy_holder_customer_id = 9560591&amp;nbsp;&lt;/div&gt;&lt;div&gt;&lt;span style=&quot;&quot;&gt;&#9;&lt;/span&gt;AND renew_policy_premium_schedule_id = 9716297&amp;nbsp;&lt;/div&gt;&lt;div&gt;&lt;span style=&quot;&quot;&gt;&#9;&lt;/span&gt;AND renew_product_premium_schedule_id = 9743792&amp;nbsp;&lt;/div&gt;&lt;div&gt;&lt;span style=&quot;&quot;&gt;&#9;&lt;/span&gt;AND is_deleted = 'N'&lt;/div&gt;&lt;/div&gt;" style="shape=note;size=20;whiteSpace=wrap;html=1;fontSize=12;align=left;" parent="98" vertex="1"><mxGeometry x="1432" y="1824" width="220" height="230" as="geometry"/></mxCell><mxCell id="194" value="&lt;div style=&quot;&quot;&gt;&lt;div style=&quot;&quot;&gt;SELECT&lt;/div&gt;&lt;div style=&quot;&quot;&gt;&lt;span style=&quot;&quot;&gt;&#9;&lt;/span&gt;*&amp;nbsp;&lt;/div&gt;&lt;div style=&quot;&quot;&gt;FROM&lt;/div&gt;&lt;div style=&quot;&quot;&gt;&lt;span style=&quot;&quot;&gt;&#9;&lt;/span&gt;renew_policy_transaction&amp;nbsp;&lt;/div&gt;&lt;div style=&quot;&quot;&gt;WHERE&lt;/div&gt;&lt;div style=&quot;&quot;&gt;&lt;span style=&quot;&quot;&gt;&#9;&lt;/span&gt;1 = 1&amp;nbsp;&lt;/div&gt;&lt;div style=&quot;&quot;&gt;&lt;span style=&quot;&quot;&gt;&#9;&lt;/span&gt;AND policy_holder_customer_id = 9560591&amp;nbsp;&lt;/div&gt;&lt;div style=&quot;&quot;&gt;&lt;span style=&quot;&quot;&gt;&#9;&lt;/span&gt;AND renew_policy_premium_schedule_id = 9716297&amp;nbsp;&lt;/div&gt;&lt;div style=&quot;&quot;&gt;&lt;span style=&quot;&quot;&gt;&#9;&lt;/span&gt;AND is_deleted = 'N'&lt;/div&gt;&lt;/div&gt;" style="shape=note;size=20;whiteSpace=wrap;html=1;fontSize=12;align=left;" parent="98" vertex="1"><mxGeometry x="1667" y="1829" width="220" height="190" as="geometry"/></mxCell><mxCell id="201" value="续期相关的查询sql" style="swimlane;whiteSpace=wrap;html=1;" parent="98" vertex="1"><mxGeometry x="1170" y="1542" width="743" height="545" as="geometry"/></mxCell><mxCell id="204" value="&lt;div&gt;UPDATE renew_policy_premium_schedule&amp;nbsp;&lt;/div&gt;&lt;div&gt;SET flag = 2,&lt;/div&gt;&lt;div&gt;gmt_modified = CURRENT_TIMESTAMP ( 3 )&amp;nbsp;&lt;/div&gt;&lt;div&gt;WHERE&lt;/div&gt;&lt;div&gt;&lt;span style=&quot;&quot;&gt;&#9;&lt;/span&gt;id = 9762296&amp;nbsp;&lt;/div&gt;&lt;div&gt;&lt;span style=&quot;&quot;&gt;&#9;&lt;/span&gt;AND policy_holder_customer_id = 9561535&lt;/div&gt;" style="shape=note;size=20;whiteSpace=wrap;html=1;align=left;verticalAlign=middle;" parent="98" vertex="1"><mxGeometry x="2563" y="1907" width="220" height="140" as="geometry"/></mxCell><mxCell id="209" style="edgeStyle=none;rounded=0;orthogonalLoop=1;jettySize=auto;html=1;entryX=0.5;entryY=0;entryDx=0;entryDy=0;entryPerimeter=0;" parent="98" source="206" target="208" edge="1"><mxGeometry relative="1" as="geometry"/></mxCell><mxCell id="206" value="&lt;div style=&quot;font-size: 16px;&quot; class=&quot;mind-clipboard&quot;&gt;&lt;div class=&quot;mind-clipboard&quot;&gt;&lt;div&gt;&lt;span style=&quot;color: rgb(50, 50, 50); font-family: Arial; font-size: 20px; background-color: rgba(255, 255, 255, 0.01);&quot;&gt;查询保单信息&lt;/span&gt;&lt;br&gt;&lt;/div&gt;&lt;/div&gt;&lt;/div&gt;" style="rounded=1;whiteSpace=wrap;html=1;absoluteArcSize=1;arcSize=14;strokeWidth=2;fontFamily=Lucida Console;" parent="98" vertex="1"><mxGeometry x="2238.51" y="2106" width="173.99" height="60" as="geometry"/></mxCell><mxCell id="218" style="edgeStyle=none;rounded=0;orthogonalLoop=1;jettySize=auto;html=1;entryX=0.5;entryY=0;entryDx=0;entryDy=0;fontSize=16;" parent="98" source="208" target="217" edge="1"><mxGeometry relative="1" as="geometry"/></mxCell><mxCell id="298" style="rounded=0;orthogonalLoop=1;jettySize=auto;html=1;dashed=1;" parent="98" source="208" target="251" edge="1"><mxGeometry relative="1" as="geometry"/></mxCell><mxCell id="208" value="&lt;span style=&quot;color: rgb(50, 50, 50); font-size: 16px; background-color: rgba(255, 255, 255, 0.01);&quot;&gt;dueDate comapre&lt;br&gt;expiryDate&lt;br&gt;&lt;/span&gt;" style="strokeWidth=2;html=1;shape=mxgraph.flowchart.decision;whiteSpace=wrap;fontFamily=Lucida Console;" parent="98" vertex="1"><mxGeometry x="2288.63" y="2248" width="73.75" height="60" as="geometry"/></mxCell><mxCell id="212" value="缴费时间不与保单止期在同一个月，进行抽档" style="text;html=1;strokeColor=none;fillColor=none;align=center;verticalAlign=middle;whiteSpace=wrap;rounded=0;fontSize=16;" parent="98" vertex="1"><mxGeometry x="2353.37" y="2212" width="192.63" height="65" as="geometry"/></mxCell><mxCell id="304" style="edgeStyle=orthogonalEdgeStyle;rounded=0;orthogonalLoop=1;jettySize=auto;html=1;entryX=0.5;entryY=0;entryDx=0;entryDy=0;" parent="98" source="217" target="227" edge="1"><mxGeometry relative="1" as="geometry"/></mxCell><mxCell id="217" value="&lt;div style=&quot;font-size: 16px;&quot; class=&quot;mind-clipboard&quot;&gt;&lt;div class=&quot;mind-clipboard&quot;&gt;&lt;div&gt;&lt;span style=&quot;color: rgb(50, 50, 50); font-family: Arial; background-color: rgba(255, 255, 255, 0.01);&quot;&gt;生成续期交易流水号&lt;/span&gt;&lt;br&gt;&lt;/div&gt;&lt;/div&gt;&lt;/div&gt;" style="rounded=1;whiteSpace=wrap;html=1;absoluteArcSize=1;arcSize=14;strokeWidth=2;fontFamily=Lucida Console;" parent="98" vertex="1"><mxGeometry x="2238.51" y="2397" width="173.99" height="60" as="geometry"/></mxCell><mxCell id="219" value="不在同月" style="text;html=1;strokeColor=none;fillColor=none;align=center;verticalAlign=middle;whiteSpace=wrap;rounded=0;fontFamily=Lucida Console;rotation=90;fontStyle=1" parent="98" vertex="1"><mxGeometry x="2312" y="2333" width="60" height="30" as="geometry"/></mxCell><mxCell id="226" value="" style="edgeStyle=orthogonalEdgeStyle;rounded=0;orthogonalLoop=1;jettySize=auto;html=1;dashed=1;fontSize=16;" parent="98" source="223" target="225" edge="1"><mxGeometry relative="1" as="geometry"/></mxCell><mxCell id="306" value="" style="edgeStyle=orthogonalEdgeStyle;rounded=0;orthogonalLoop=1;jettySize=auto;html=1;" parent="98" source="223" target="229" edge="1"><mxGeometry relative="1" as="geometry"/></mxCell><mxCell id="223" value="&lt;div style=&quot;font-size: 16px;&quot; class=&quot;mind-clipboard&quot;&gt;&lt;div class=&quot;mind-clipboard&quot;&gt;&lt;div&gt;&lt;span style=&quot;color: rgb(50, 50, 50); font-family: Arial; background-color: rgba(255, 255, 255, 0.01);&quot;&gt;组装续期交易请求参数&lt;/span&gt;&lt;br&gt;&lt;/div&gt;&lt;div&gt;&lt;span style=&quot;color: rgb(50, 50, 50); font-family: Arial; background-color: rgba(255, 255, 255, 0.01);&quot;&gt;保存交易信息以及交易明细，renew_policy_transaction、renew_policy_transaction_detail&lt;/span&gt;&lt;span style=&quot;color: rgb(50, 50, 50); font-family: Arial; background-color: rgba(255, 255, 255, 0.01);&quot;&gt;&lt;br&gt;&lt;/span&gt;&lt;/div&gt;&lt;/div&gt;&lt;/div&gt;" style="rounded=1;whiteSpace=wrap;html=1;absoluteArcSize=1;arcSize=14;strokeWidth=2;fontFamily=Lucida Console;" parent="98" vertex="1"><mxGeometry x="2203.25" y="2687" width="244.49" height="110" as="geometry"/></mxCell><mxCell id="225" value="&lt;div style=&quot;&quot;&gt;&lt;div style=&quot;&quot;&gt;insert into renew_policy_transaction&lt;br&gt;&lt;/div&gt;&lt;div style=&quot;&quot;&gt;insert into renew_router&lt;br&gt;&lt;/div&gt;&lt;div style=&quot;&quot;&gt;insert into renew_policy_transaction_detail&lt;br&gt;&lt;/div&gt;&lt;/div&gt;" style="shape=note;size=20;whiteSpace=wrap;html=1;fontSize=12;align=left;" parent="98" vertex="1"><mxGeometry x="1883" y="2707" width="231" height="70" as="geometry"/></mxCell><mxCell id="305" style="edgeStyle=orthogonalEdgeStyle;rounded=0;orthogonalLoop=1;jettySize=auto;html=1;entryX=0.5;entryY=0;entryDx=0;entryDy=0;" parent="98" source="227" target="223" edge="1"><mxGeometry relative="1" as="geometry"/></mxCell><mxCell id="227" value="&lt;div style=&quot;&quot; class=&quot;mind-clipboard&quot;&gt;&lt;div style=&quot;&quot; class=&quot;mind-clipboard&quot;&gt;&lt;div style=&quot;&quot;&gt;&lt;span style=&quot;font-size: 16px; color: rgb(50, 50, 50); font-family: Arial; background-color: rgba(255, 255, 255, 0.01);&quot;&gt;累加险种缴费计划[&lt;/span&gt;&lt;span style=&quot;font-family: Helvetica; background-color: initial;&quot;&gt;&lt;font style=&quot;font-size: 16px;&quot;&gt;renew_product_premium&lt;/font&gt;&lt;/span&gt;&lt;span style=&quot;font-size: 16px; background-color: rgba(255, 255, 255, 0.01); color: rgb(50, 50, 50); font-family: Arial;&quot;&gt;]上的期缴保费，得到总的应收保费&lt;/span&gt;&lt;/div&gt;&lt;/div&gt;&lt;/div&gt;" style="rounded=1;whiteSpace=wrap;html=1;absoluteArcSize=1;arcSize=14;strokeWidth=2;fontFamily=Lucida Console;" parent="98" vertex="1"><mxGeometry x="2230.19" y="2525" width="191.12" height="90" as="geometry"/></mxCell><mxCell id="310" style="edgeStyle=orthogonalEdgeStyle;rounded=0;orthogonalLoop=1;jettySize=auto;html=1;entryX=0.5;entryY=0;entryDx=0;entryDy=0;" parent="98" source="229" target="309" edge="1"><mxGeometry relative="1" as="geometry"/></mxCell><mxCell id="229" value="&lt;div style=&quot;font-size: 16px;&quot; class=&quot;mind-clipboard&quot;&gt;&lt;div class=&quot;mind-clipboard&quot;&gt;&lt;div&gt;&lt;span style=&quot;color: rgb(50, 50, 50); font-family: Arial; font-size: 17px; background-color: rgba(255, 255, 255, 0.01);&quot;&gt;调用bcp创建续期应收账单&lt;/span&gt;&lt;br&gt;&lt;/div&gt;&lt;/div&gt;&lt;/div&gt;" style="rounded=1;whiteSpace=wrap;html=1;absoluteArcSize=1;arcSize=14;strokeWidth=2;fontFamily=Lucida Console;" parent="98" vertex="1"><mxGeometry x="2216.5" y="2865" width="218" height="50" as="geometry"/></mxCell><mxCell id="317" value="" style="edgeStyle=orthogonalEdgeStyle;rounded=0;orthogonalLoop=1;jettySize=auto;html=1;fontFamily=Lucida Console;fontSize=16;" parent="98" source="231" target="316" edge="1"><mxGeometry relative="1" as="geometry"/></mxCell><mxCell id="231" value="&lt;div style=&quot;&quot; class=&quot;mind-clipboard&quot;&gt;&lt;div style=&quot;&quot; class=&quot;mind-clipboard&quot;&gt;&lt;div style=&quot;&quot;&gt;&lt;span style=&quot;font-size: 12px; background-color: rgba(255, 255, 255, 0.01);&quot;&gt;&lt;font face=&quot;Arial&quot; color=&quot;#323232&quot;&gt;&lt;span style=&quot;font-size: 17px;&quot;&gt;更新保单续期计划字段[&lt;/span&gt;&lt;/font&gt;&lt;/span&gt;&lt;span style=&quot;font-size: 16px; color: rgb(50, 50, 50); font-family: Arial; background-color: rgba(255, 255, 255, 0.01);&quot;&gt;flag]改为[&lt;/span&gt;&lt;span style=&quot;background-color: initial; font-size: 16px;&quot;&gt;&lt;font face=&quot;Arial&quot; color=&quot;#323232&quot;&gt;NOT_RUN(1, &quot;未抽档&quot;)&lt;/font&gt;&lt;/span&gt;&lt;span style=&quot;font-size: 16px; background-color: rgba(255, 255, 255, 0.01); color: rgb(50, 50, 50); font-family: Arial;&quot;&gt;]&lt;/span&gt;&lt;/div&gt;&lt;/div&gt;&lt;/div&gt;" style="rounded=1;whiteSpace=wrap;html=1;absoluteArcSize=1;arcSize=14;strokeWidth=2;fontFamily=Lucida Console;" parent="98" vertex="1"><mxGeometry x="2040.76" y="3170" width="182.24" height="72" as="geometry"/></mxCell><mxCell id="315" style="edgeStyle=orthogonalEdgeStyle;rounded=0;orthogonalLoop=1;jettySize=auto;html=1;entryX=1;entryY=0.5;entryDx=0;entryDy=0;fontFamily=Lucida Console;fontSize=16;" parent="98" source="232" target="231" edge="1"><mxGeometry relative="1" as="geometry"/></mxCell><mxCell id="232" value="&lt;div style=&quot;&quot; class=&quot;mind-clipboard&quot;&gt;&lt;div style=&quot;&quot; class=&quot;mind-clipboard&quot;&gt;&lt;div style=&quot;&quot;&gt;&lt;span style=&quot;background-color: rgba(255, 255, 255, 0.01);&quot;&gt;&lt;font face=&quot;Arial&quot; color=&quot;#323232&quot;&gt;&lt;span style=&quot;font-size: 17px;&quot;&gt;更新保单续期计划字段[renew_due_date]和[current_index]，分别往后延1，得到下期缴费日期以及&lt;/span&gt;&lt;/font&gt;&lt;/span&gt;&lt;span style=&quot;background-color: initial; font-size: 17px;&quot;&gt;&lt;font face=&quot;Arial&quot; color=&quot;#323232&quot;&gt;current_index，如果是最后一期并不会更新以上字段&lt;/font&gt;&lt;/span&gt;&lt;br&gt;&lt;/div&gt;&lt;/div&gt;&lt;/div&gt;" style="rounded=1;whiteSpace=wrap;html=1;absoluteArcSize=1;arcSize=14;strokeWidth=2;fontFamily=Lucida Console;" parent="98" vertex="1"><mxGeometry x="2393" y="3140" width="240" height="132" as="geometry"/></mxCell><mxCell id="234" value="&lt;b&gt;废弃？&lt;/b&gt;" style="text;html=1;strokeColor=none;fillColor=none;align=center;verticalAlign=middle;whiteSpace=wrap;rounded=0;" parent="98" vertex="1"><mxGeometry x="2343" y="1572" width="60" height="30" as="geometry"/></mxCell><mxCell id="236" value="根据续保计划表ID以及分表建[policy_holder_customer_id]查询即可" style="text;html=1;strokeColor=none;fillColor=none;align=center;verticalAlign=middle;whiteSpace=wrap;rounded=0;" parent="98" vertex="1"><mxGeometry x="1995.5" y="1721" width="160" height="29" as="geometry"/></mxCell><mxCell id="242" value="" style="shape=table;html=1;whiteSpace=wrap;startSize=0;container=1;collapsible=0;childLayout=tableLayout;" parent="98" vertex="1"><mxGeometry x="1298" y="2151" width="500" height="661" as="geometry"/></mxCell><mxCell id="243" value="" style="shape=tableRow;horizontal=0;startSize=0;swimlaneHead=0;swimlaneBody=0;top=0;left=0;bottom=0;right=0;collapsible=0;dropTarget=0;fillColor=none;points=[[0,0.5],[1,0.5]];portConstraint=eastwest;" parent="242" vertex="1"><mxGeometry width="500" height="51" as="geometry"/></mxCell><mxCell id="244" value="index" style="shape=partialRectangle;html=1;whiteSpace=wrap;connectable=0;fillColor=none;top=0;left=0;bottom=0;right=0;overflow=hidden;" parent="243" vertex="1"><mxGeometry width="167" height="51" as="geometry"><mxRectangle width="167" height="51" as="alternateBounds"/></mxGeometry></mxCell><mxCell id="245" value="dueDate" style="shape=partialRectangle;html=1;whiteSpace=wrap;connectable=0;fillColor=none;top=0;left=0;bottom=0;right=0;overflow=hidden;" parent="243" vertex="1"><mxGeometry x="167" width="166" height="51" as="geometry"><mxRectangle width="166" height="51" as="alternateBounds"/></mxGeometry></mxCell><mxCell id="246" value="expiryDate" style="shape=partialRectangle;html=1;whiteSpace=wrap;connectable=0;fillColor=none;top=0;left=0;bottom=0;right=0;overflow=hidden;" parent="243" vertex="1"><mxGeometry x="333" width="167" height="51" as="geometry"><mxRectangle width="167" height="51" as="alternateBounds"/></mxGeometry></mxCell><mxCell id="247" value="" style="shape=tableRow;horizontal=0;startSize=0;swimlaneHead=0;swimlaneBody=0;top=0;left=0;bottom=0;right=0;collapsible=0;dropTarget=0;fillColor=none;points=[[0,0.5],[1,0.5]];portConstraint=eastwest;" parent="242" vertex="1"><mxGeometry y="51" width="500" height="49" as="geometry"/></mxCell><mxCell id="248" value="1" style="shape=partialRectangle;html=1;whiteSpace=wrap;connectable=0;fillColor=none;top=0;left=0;bottom=0;right=0;overflow=hidden;" parent="247" vertex="1"><mxGeometry width="167" height="49" as="geometry"><mxRectangle width="167" height="49" as="alternateBounds"/></mxGeometry></mxCell><mxCell id="249" value="2022-12-09 15:00:00" style="shape=partialRectangle;html=1;whiteSpace=wrap;connectable=0;fillColor=none;top=0;left=0;bottom=0;right=0;overflow=hidden;" parent="247" vertex="1"><mxGeometry x="167" width="166" height="49" as="geometry"><mxRectangle width="166" height="49" as="alternateBounds"/></mxGeometry></mxCell><mxCell id="250" value="2023-12-09 14:59:59" style="shape=partialRectangle;html=1;whiteSpace=wrap;connectable=0;fillColor=none;top=0;left=0;bottom=0;right=0;overflow=hidden;" parent="247" vertex="1"><mxGeometry x="333" width="167" height="49" as="geometry"><mxRectangle width="167" height="49" as="alternateBounds"/></mxGeometry></mxCell><mxCell id="251" value="" style="shape=tableRow;horizontal=0;startSize=0;swimlaneHead=0;swimlaneBody=0;top=0;left=0;bottom=0;right=0;collapsible=0;dropTarget=0;fillColor=none;points=[[0,0.5],[1,0.5]];portConstraint=eastwest;" parent="242" vertex="1"><mxGeometry y="100" width="500" height="51" as="geometry"/></mxCell><mxCell id="252" value="2" style="shape=partialRectangle;html=1;whiteSpace=wrap;connectable=0;fillColor=none;top=0;left=0;bottom=0;right=0;overflow=hidden;" parent="251" vertex="1"><mxGeometry width="167" height="51" as="geometry"><mxRectangle width="167" height="51" as="alternateBounds"/></mxGeometry></mxCell><mxCell id="253" value="2023-01-01 00:00:00" style="shape=partialRectangle;html=1;whiteSpace=wrap;connectable=0;fillColor=none;top=0;left=0;bottom=0;right=0;overflow=hidden;" parent="251" vertex="1"><mxGeometry x="167" width="166" height="51" as="geometry"><mxRectangle width="166" height="51" as="alternateBounds"/></mxGeometry></mxCell><mxCell id="254" value="2023-12-09 14:59:59" style="shape=partialRectangle;html=1;whiteSpace=wrap;connectable=0;fillColor=none;top=0;left=0;bottom=0;right=0;overflow=hidden;pointerEvents=1;" parent="251" vertex="1"><mxGeometry x="333" width="167" height="51" as="geometry"><mxRectangle width="167" height="51" as="alternateBounds"/></mxGeometry></mxCell><mxCell id="255" style="shape=tableRow;horizontal=0;startSize=0;swimlaneHead=0;swimlaneBody=0;top=0;left=0;bottom=0;right=0;collapsible=0;dropTarget=0;fillColor=none;points=[[0,0.5],[1,0.5]];portConstraint=eastwest;" parent="242" vertex="1"><mxGeometry y="151" width="500" height="51" as="geometry"/></mxCell><mxCell id="256" value="3" style="shape=partialRectangle;html=1;whiteSpace=wrap;connectable=0;fillColor=none;top=0;left=0;bottom=0;right=0;overflow=hidden;" parent="255" vertex="1"><mxGeometry width="167" height="51" as="geometry"><mxRectangle width="167" height="51" as="alternateBounds"/></mxGeometry></mxCell><mxCell id="257" value="2023-02-01 00:00:00" style="shape=partialRectangle;html=1;whiteSpace=wrap;connectable=0;fillColor=none;top=0;left=0;bottom=0;right=0;overflow=hidden;" parent="255" vertex="1"><mxGeometry x="167" width="166" height="51" as="geometry"><mxRectangle width="166" height="51" as="alternateBounds"/></mxGeometry></mxCell><mxCell id="258" value="2023-12-09 14:59:59" style="shape=partialRectangle;html=1;whiteSpace=wrap;connectable=0;fillColor=none;top=0;left=0;bottom=0;right=0;overflow=hidden;pointerEvents=1;" parent="255" vertex="1"><mxGeometry x="333" width="167" height="51" as="geometry"><mxRectangle width="167" height="51" as="alternateBounds"/></mxGeometry></mxCell><mxCell id="259" style="shape=tableRow;horizontal=0;startSize=0;swimlaneHead=0;swimlaneBody=0;top=0;left=0;bottom=0;right=0;collapsible=0;dropTarget=0;fillColor=none;points=[[0,0.5],[1,0.5]];portConstraint=eastwest;" parent="242" vertex="1"><mxGeometry y="202" width="500" height="51" as="geometry"/></mxCell><mxCell id="260" value="4" style="shape=partialRectangle;html=1;whiteSpace=wrap;connectable=0;fillColor=none;top=0;left=0;bottom=0;right=0;overflow=hidden;" parent="259" vertex="1"><mxGeometry width="167" height="51" as="geometry"><mxRectangle width="167" height="51" as="alternateBounds"/></mxGeometry></mxCell><mxCell id="261" value="2023-03-01 00:00:00" style="shape=partialRectangle;html=1;whiteSpace=wrap;connectable=0;fillColor=none;top=0;left=0;bottom=0;right=0;overflow=hidden;" parent="259" vertex="1"><mxGeometry x="167" width="166" height="51" as="geometry"><mxRectangle width="166" height="51" as="alternateBounds"/></mxGeometry></mxCell><mxCell id="262" value="2023-12-09 14:59:59" style="shape=partialRectangle;html=1;whiteSpace=wrap;connectable=0;fillColor=none;top=0;left=0;bottom=0;right=0;overflow=hidden;pointerEvents=1;" parent="259" vertex="1"><mxGeometry x="333" width="167" height="51" as="geometry"><mxRectangle width="167" height="51" as="alternateBounds"/></mxGeometry></mxCell><mxCell id="263" style="shape=tableRow;horizontal=0;startSize=0;swimlaneHead=0;swimlaneBody=0;top=0;left=0;bottom=0;right=0;collapsible=0;dropTarget=0;fillColor=none;points=[[0,0.5],[1,0.5]];portConstraint=eastwest;" parent="242" vertex="1"><mxGeometry y="253" width="500" height="51" as="geometry"/></mxCell><mxCell id="264" value="5" style="shape=partialRectangle;html=1;whiteSpace=wrap;connectable=0;fillColor=none;top=0;left=0;bottom=0;right=0;overflow=hidden;" parent="263" vertex="1"><mxGeometry width="167" height="51" as="geometry"><mxRectangle width="167" height="51" as="alternateBounds"/></mxGeometry></mxCell><mxCell id="265" value="2023-04-01 00:00:00" style="shape=partialRectangle;html=1;whiteSpace=wrap;connectable=0;fillColor=none;top=0;left=0;bottom=0;right=0;overflow=hidden;" parent="263" vertex="1"><mxGeometry x="167" width="166" height="51" as="geometry"><mxRectangle width="166" height="51" as="alternateBounds"/></mxGeometry></mxCell><mxCell id="266" value="2023-12-09 14:59:59" style="shape=partialRectangle;html=1;whiteSpace=wrap;connectable=0;fillColor=none;top=0;left=0;bottom=0;right=0;overflow=hidden;pointerEvents=1;" parent="263" vertex="1"><mxGeometry x="333" width="167" height="51" as="geometry"><mxRectangle width="167" height="51" as="alternateBounds"/></mxGeometry></mxCell><mxCell id="267" style="shape=tableRow;horizontal=0;startSize=0;swimlaneHead=0;swimlaneBody=0;top=0;left=0;bottom=0;right=0;collapsible=0;dropTarget=0;fillColor=none;points=[[0,0.5],[1,0.5]];portConstraint=eastwest;" parent="242" vertex="1"><mxGeometry y="304" width="500" height="51" as="geometry"/></mxCell><mxCell id="268" value="6" style="shape=partialRectangle;html=1;whiteSpace=wrap;connectable=0;fillColor=none;top=0;left=0;bottom=0;right=0;overflow=hidden;" parent="267" vertex="1"><mxGeometry width="167" height="51" as="geometry"><mxRectangle width="167" height="51" as="alternateBounds"/></mxGeometry></mxCell><mxCell id="269" value="2023-05-01 00:00:00" style="shape=partialRectangle;html=1;whiteSpace=wrap;connectable=0;fillColor=none;top=0;left=0;bottom=0;right=0;overflow=hidden;" parent="267" vertex="1"><mxGeometry x="167" width="166" height="51" as="geometry"><mxRectangle width="166" height="51" as="alternateBounds"/></mxGeometry></mxCell><mxCell id="270" value="2023-12-09 14:59:59" style="shape=partialRectangle;html=1;whiteSpace=wrap;connectable=0;fillColor=none;top=0;left=0;bottom=0;right=0;overflow=hidden;pointerEvents=1;" parent="267" vertex="1"><mxGeometry x="333" width="167" height="51" as="geometry"><mxRectangle width="167" height="51" as="alternateBounds"/></mxGeometry></mxCell><mxCell id="271" style="shape=tableRow;horizontal=0;startSize=0;swimlaneHead=0;swimlaneBody=0;top=0;left=0;bottom=0;right=0;collapsible=0;dropTarget=0;fillColor=none;points=[[0,0.5],[1,0.5]];portConstraint=eastwest;" parent="242" vertex="1"><mxGeometry y="355" width="500" height="51" as="geometry"/></mxCell><mxCell id="272" value="7" style="shape=partialRectangle;html=1;whiteSpace=wrap;connectable=0;fillColor=none;top=0;left=0;bottom=0;right=0;overflow=hidden;" parent="271" vertex="1"><mxGeometry width="167" height="51" as="geometry"><mxRectangle width="167" height="51" as="alternateBounds"/></mxGeometry></mxCell><mxCell id="273" value="2023-06-01 00:00:00" style="shape=partialRectangle;html=1;whiteSpace=wrap;connectable=0;fillColor=none;top=0;left=0;bottom=0;right=0;overflow=hidden;" parent="271" vertex="1"><mxGeometry x="167" width="166" height="51" as="geometry"><mxRectangle width="166" height="51" as="alternateBounds"/></mxGeometry></mxCell><mxCell id="274" value="2023-12-09 14:59:59" style="shape=partialRectangle;html=1;whiteSpace=wrap;connectable=0;fillColor=none;top=0;left=0;bottom=0;right=0;overflow=hidden;pointerEvents=1;" parent="271" vertex="1"><mxGeometry x="333" width="167" height="51" as="geometry"><mxRectangle width="167" height="51" as="alternateBounds"/></mxGeometry></mxCell><mxCell id="283" style="shape=tableRow;horizontal=0;startSize=0;swimlaneHead=0;swimlaneBody=0;top=0;left=0;bottom=0;right=0;collapsible=0;dropTarget=0;fillColor=none;points=[[0,0.5],[1,0.5]];portConstraint=eastwest;" parent="242" vertex="1"><mxGeometry y="406" width="500" height="51" as="geometry"/></mxCell><mxCell id="284" value="8" style="shape=partialRectangle;html=1;whiteSpace=wrap;connectable=0;fillColor=none;top=0;left=0;bottom=0;right=0;overflow=hidden;" parent="283" vertex="1"><mxGeometry width="167" height="51" as="geometry"><mxRectangle width="167" height="51" as="alternateBounds"/></mxGeometry></mxCell><mxCell id="285" value="2023-07-01 00:00:00" style="shape=partialRectangle;html=1;whiteSpace=wrap;connectable=0;fillColor=none;top=0;left=0;bottom=0;right=0;overflow=hidden;" parent="283" vertex="1"><mxGeometry x="167" width="166" height="51" as="geometry"><mxRectangle width="166" height="51" as="alternateBounds"/></mxGeometry></mxCell><mxCell id="286" value="2023-12-09 14:59:59" style="shape=partialRectangle;html=1;whiteSpace=wrap;connectable=0;fillColor=none;top=0;left=0;bottom=0;right=0;overflow=hidden;pointerEvents=1;" parent="283" vertex="1"><mxGeometry x="333" width="167" height="51" as="geometry"><mxRectangle width="167" height="51" as="alternateBounds"/></mxGeometry></mxCell><mxCell id="279" style="shape=tableRow;horizontal=0;startSize=0;swimlaneHead=0;swimlaneBody=0;top=0;left=0;bottom=0;right=0;collapsible=0;dropTarget=0;fillColor=none;points=[[0,0.5],[1,0.5]];portConstraint=eastwest;" parent="242" vertex="1"><mxGeometry y="457" width="500" height="51" as="geometry"/></mxCell><mxCell id="280" value="9" style="shape=partialRectangle;html=1;whiteSpace=wrap;connectable=0;fillColor=none;top=0;left=0;bottom=0;right=0;overflow=hidden;" parent="279" vertex="1"><mxGeometry width="167" height="51" as="geometry"><mxRectangle width="167" height="51" as="alternateBounds"/></mxGeometry></mxCell><mxCell id="281" value="2023-08-01 00:00:00" style="shape=partialRectangle;html=1;whiteSpace=wrap;connectable=0;fillColor=none;top=0;left=0;bottom=0;right=0;overflow=hidden;" parent="279" vertex="1"><mxGeometry x="167" width="166" height="51" as="geometry"><mxRectangle width="166" height="51" as="alternateBounds"/></mxGeometry></mxCell><mxCell id="282" value="2023-12-09 14:59:59" style="shape=partialRectangle;html=1;whiteSpace=wrap;connectable=0;fillColor=none;top=0;left=0;bottom=0;right=0;overflow=hidden;pointerEvents=1;" parent="279" vertex="1"><mxGeometry x="333" width="167" height="51" as="geometry"><mxRectangle width="167" height="51" as="alternateBounds"/></mxGeometry></mxCell><mxCell id="275" style="shape=tableRow;horizontal=0;startSize=0;swimlaneHead=0;swimlaneBody=0;top=0;left=0;bottom=0;right=0;collapsible=0;dropTarget=0;fillColor=none;points=[[0,0.5],[1,0.5]];portConstraint=eastwest;" parent="242" vertex="1"><mxGeometry y="508" width="500" height="51" as="geometry"/></mxCell><mxCell id="276" value="10" style="shape=partialRectangle;html=1;whiteSpace=wrap;connectable=0;fillColor=none;top=0;left=0;bottom=0;right=0;overflow=hidden;" parent="275" vertex="1"><mxGeometry width="167" height="51" as="geometry"><mxRectangle width="167" height="51" as="alternateBounds"/></mxGeometry></mxCell><mxCell id="277" value="2023-09-01 00:00:00" style="shape=partialRectangle;html=1;whiteSpace=wrap;connectable=0;fillColor=none;top=0;left=0;bottom=0;right=0;overflow=hidden;" parent="275" vertex="1"><mxGeometry x="167" width="166" height="51" as="geometry"><mxRectangle width="166" height="51" as="alternateBounds"/></mxGeometry></mxCell><mxCell id="278" value="2023-12-09 14:59:59" style="shape=partialRectangle;html=1;whiteSpace=wrap;connectable=0;fillColor=none;top=0;left=0;bottom=0;right=0;overflow=hidden;pointerEvents=1;" parent="275" vertex="1"><mxGeometry x="333" width="167" height="51" as="geometry"><mxRectangle width="167" height="51" as="alternateBounds"/></mxGeometry></mxCell><mxCell id="294" style="shape=tableRow;horizontal=0;startSize=0;swimlaneHead=0;swimlaneBody=0;top=0;left=0;bottom=0;right=0;collapsible=0;dropTarget=0;fillColor=none;points=[[0,0.5],[1,0.5]];portConstraint=eastwest;" parent="242" vertex="1"><mxGeometry y="559" width="500" height="51" as="geometry"/></mxCell><mxCell id="295" value="11" style="shape=partialRectangle;html=1;whiteSpace=wrap;connectable=0;fillColor=none;top=0;left=0;bottom=0;right=0;overflow=hidden;" parent="294" vertex="1"><mxGeometry width="167" height="51" as="geometry"><mxRectangle width="167" height="51" as="alternateBounds"/></mxGeometry></mxCell><mxCell id="296" value="2023-10-01 00:00:00" style="shape=partialRectangle;html=1;whiteSpace=wrap;connectable=0;fillColor=none;top=0;left=0;bottom=0;right=0;overflow=hidden;" parent="294" vertex="1"><mxGeometry x="167" width="166" height="51" as="geometry"><mxRectangle width="166" height="51" as="alternateBounds"/></mxGeometry></mxCell><mxCell id="297" value="2023-12-09 14:59:59" style="shape=partialRectangle;html=1;whiteSpace=wrap;connectable=0;fillColor=none;top=0;left=0;bottom=0;right=0;overflow=hidden;pointerEvents=1;" parent="294" vertex="1"><mxGeometry x="333" width="167" height="51" as="geometry"><mxRectangle width="167" height="51" as="alternateBounds"/></mxGeometry></mxCell><mxCell id="290" style="shape=tableRow;horizontal=0;startSize=0;swimlaneHead=0;swimlaneBody=0;top=0;left=0;bottom=0;right=0;collapsible=0;dropTarget=0;fillColor=none;points=[[0,0.5],[1,0.5]];portConstraint=eastwest;" parent="242" vertex="1"><mxGeometry y="610" width="500" height="51" as="geometry"/></mxCell><mxCell id="291" value="12" style="shape=partialRectangle;html=1;whiteSpace=wrap;connectable=0;fillColor=none;top=0;left=0;bottom=0;right=0;overflow=hidden;" parent="290" vertex="1"><mxGeometry width="167" height="51" as="geometry"><mxRectangle width="167" height="51" as="alternateBounds"/></mxGeometry></mxCell><mxCell id="292" value="2023-11-01 00:00:00" style="shape=partialRectangle;html=1;whiteSpace=wrap;connectable=0;fillColor=none;top=0;left=0;bottom=0;right=0;overflow=hidden;" parent="290" vertex="1"><mxGeometry x="167" width="166" height="51" as="geometry"><mxRectangle width="166" height="51" as="alternateBounds"/></mxGeometry></mxCell><mxCell id="293" value="2023-12-09 14:59:59" style="shape=partialRectangle;html=1;whiteSpace=wrap;connectable=0;fillColor=none;top=0;left=0;bottom=0;right=0;overflow=hidden;pointerEvents=1;" parent="290" vertex="1"><mxGeometry x="333" width="167" height="51" as="geometry"><mxRectangle width="167" height="51" as="alternateBounds"/></mxGeometry></mxCell><mxCell id="311" style="edgeStyle=orthogonalEdgeStyle;rounded=0;orthogonalLoop=1;jettySize=auto;html=1;entryX=0.5;entryY=0;entryDx=0;entryDy=0;fontFamily=Lucida Console;fontSize=16;" parent="98" source="309" target="231" edge="1"><mxGeometry relative="1" as="geometry"/></mxCell><mxCell id="312" value="N" style="edgeLabel;html=1;align=center;verticalAlign=middle;resizable=0;points=[];fontSize=16;fontFamily=Lucida Console;" parent="311" vertex="1" connectable="0"><mxGeometry x="-0.2378" y="-4" relative="1" as="geometry"><mxPoint as="offset"/></mxGeometry></mxCell><mxCell id="313" style="edgeStyle=orthogonalEdgeStyle;rounded=0;orthogonalLoop=1;jettySize=auto;html=1;entryX=0.5;entryY=0;entryDx=0;entryDy=0;fontFamily=Lucida Console;fontSize=16;" parent="98" source="309" target="232" edge="1"><mxGeometry relative="1" as="geometry"/></mxCell><mxCell id="314" value="Y" style="edgeLabel;html=1;align=center;verticalAlign=middle;resizable=0;points=[];fontSize=16;fontFamily=Lucida Console;" parent="313" vertex="1" connectable="0"><mxGeometry x="-0.33" y="3" relative="1" as="geometry"><mxPoint as="offset"/></mxGeometry></mxCell><mxCell id="309" value="成功" style="rhombus;whiteSpace=wrap;html=1;fontSize=16;fontFamily=Lucida Console;" parent="98" vertex="1"><mxGeometry x="2285.75" y="2981" width="80" height="80" as="geometry"/></mxCell><mxCell id="316" value="&lt;font color=&quot;#323232&quot; style=&quot;font-size: 21px;&quot;&gt;&lt;span style=&quot;font-size: 21px; background-color: rgba(255, 255, 255, 0.01);&quot;&gt;end&lt;/span&gt;&lt;/font&gt;" style="strokeWidth=2;html=1;shape=mxgraph.flowchart.start_2;whiteSpace=wrap;fillColor=#f8cecc;strokeColor=#b85450;fontFamily=Lucida Console;fontSize=21;" parent="98" vertex="1"><mxGeometry x="2093.82" y="3301" width="76.12" height="71" as="geometry"/></mxCell><mxCell id="220" value="foundation" style="swimlane;horizontal=0;whiteSpace=wrap;html=1;fontSize=16;" parent="1" vertex="1"><mxGeometry x="10" y="440" width="4010" height="260" as="geometry"/></mxCell><mxCell id="221" value="&lt;div style=&quot;&quot; class=&quot;mind-clipboard&quot;&gt;&lt;div style=&quot;&quot; class=&quot;mind-clipboard&quot;&gt;&lt;div style=&quot;&quot;&gt;&lt;font face=&quot;Arial&quot; color=&quot;#323232&quot;&gt;/bizno/policy&lt;/font&gt;&lt;br&gt;&lt;/div&gt;&lt;/div&gt;&lt;/div&gt;" style="rounded=1;whiteSpace=wrap;html=1;absoluteArcSize=1;arcSize=14;strokeWidth=2;fontFamily=Lucida Console;fontSize=16;" parent="220" vertex="1"><mxGeometry x="2870" y="105" width="130" height="50" as="geometry"/></mxCell><mxCell id="222" style="edgeStyle=orthogonalEdgeStyle;rounded=0;orthogonalLoop=1;jettySize=auto;html=1;fontSize=16;dashed=1;" parent="1" source="217" target="221" edge="1"><mxGeometry relative="1" as="geometry"/></mxCell><mxCell id="235" value="&lt;b&gt;废弃？&lt;/b&gt;" style="text;html=1;strokeColor=none;fillColor=none;align=center;verticalAlign=middle;whiteSpace=wrap;rounded=0;" parent="1" vertex="1"><mxGeometry x="2422" y="2110" width="60" height="30" as="geometry"/></mxCell><mxCell id="300" value="bcp" style="swimlane;horizontal=0;whiteSpace=wrap;html=1;fontSize=16;" parent="1" vertex="1"><mxGeometry x="10" y="110" width="4010" height="260" as="geometry"/></mxCell><mxCell id="301" value="&lt;div style=&quot;&quot; class=&quot;mind-clipboard&quot;&gt;&lt;div style=&quot;&quot; class=&quot;mind-clipboard&quot;&gt;&lt;div style=&quot;&quot;&gt;&lt;font face=&quot;Arial&quot; color=&quot;#323232&quot;&gt;/bcp/createReceivableBill&lt;/font&gt;&lt;br&gt;&lt;/div&gt;&lt;/div&gt;&lt;/div&gt;" style="rounded=1;whiteSpace=wrap;html=1;absoluteArcSize=1;arcSize=14;strokeWidth=2;fontFamily=Lucida Console;fontSize=16;" parent="300" vertex="1"><mxGeometry x="3000" y="110" width="210" height="75" as="geometry"/></mxCell><mxCell id="307" style="edgeStyle=orthogonalEdgeStyle;rounded=0;orthogonalLoop=1;jettySize=auto;html=1;entryX=0.5;entryY=1;entryDx=0;entryDy=0;dashed=1;" parent="1" source="229" target="301" edge="1"><mxGeometry relative="1" as="geometry"/></mxCell></root></mxGraphModel></diagram></mxfile>